<?xml version="1.0" encoding="UTF-8"?><svg id="Capa_2" xmlns="http://www.w3.org/2000/svg" viewBox="0 0 679.01 679.01"><defs><style>.cls-1{fill:#4aeade;}</style></defs><g id="Capa_1-2"><g><path class="cls-1" d="M374.68,339.5c0-19.39-15.78-35.17-35.17-35.17s-35.18,15.78-35.18,35.17,15.78,35.17,35.18,35.17,35.17-15.78,35.17-35.17"/><path class="cls-1" d="M453.99,178.14c-10.9,0-19.76,8.87-19.76,19.76s8.86,19.75,19.76,19.75,19.76-8.86,19.76-19.75-8.86-19.76-19.76-19.76"/><path class="cls-1" d="M679.01,339.5C679.01,152.3,526.71,0,339.5,0S0,152.3,0,339.5s152.3,339.5,339.5,339.5,339.5-152.3,339.5-339.5m-339.5,309.1c-170.44,0-309.1-138.66-309.1-309.1S169.07,30.41,339.5,30.41s309.1,138.66,309.1,309.1-138.66,309.1-309.1,309.1"/></g></g></svg>